<?xml version="1.0" encoding="utf-8"?>
<!DOCTYPE svg
  PUBLIC '-//W3C//DTD SVG 1.0//EN'
  'http://www.w3.org/TR/2001/REC-SVG-20010904/DTD/svg10.dtd'>
<svg width="950" height="390" preserveAspectRatio="xMinYMin meet" viewBox="0 0 950 390" xmlns="http://www.w3.org/2000/svg" version="1.0" fill-rule="evenodd" xmlns:xlink="http://www.w3.org/1999/xlink">
	<title>...</title>
	<desc>...</desc>
	<clipPath id="clip">
		<rect x="0" y="0" width="950" height="390"/>
	</clipPath>
	<g id="group" transform="scale(1,-1) translate(0,-390)" style="clip-path: url(#clip)">
		<g transform="">
			<rect x="0" y="0" width="950" height="390" style="stroke: none; stroke-linecap: butt; stroke-width: 1; fill: rgb(100%,100%,100%); fill-rule: evenodd;"/>
			<text x="15" y="365" style="font-family: Arial; font-weight: bold; font-size: 17px;fill: rgb(12%,14%,17%); stroke:none;" transform="translate(0,730) scale(1,-1)">Direct EMC contrasts shared across RNA sequencing and arrays</text>
			<text x="15" y="341" style="font-family: Arial; font-size: 12px;fill: rgb(12%,14%,17%); stroke:none;" transform="translate(0,682) scale(1,-1)">A = probability of higher EMC expression, with half-weight for ties</text>
			<text x="15" y="305" style="font-family: Arial; font-weight: bold; font-size: 12px;fill: rgb(12%,14%,17%); stroke:none;" transform="translate(0,610) scale(1,-1)">Comparator</text>
			<text x="672" y="305" style="font-family: Arial; font-weight: bold; font-size: 12px;fill: rgb(12%,14%,17%); stroke:none;" transform="translate(0,610) scale(1,-1)">RNA sequencing</text>
			<text x="830" y="305" style="font-family: Arial; font-weight: bold; font-size: 12px;fill: rgb(12%,14%,17%); stroke:none;" transform="translate(0,610) scale(1,-1)">Arrays</text>
			<text x="672" y="286" style="font-family: Arial; font-size: 10.5px;fill: rgb(12%,14%,17%); stroke:none;" transform="translate(0,572) scale(1,-1)">EMC / reference n; A</text>
			<text x="830" y="286" style="font-family: Arial; font-size: 10.5px;fill: rgb(12%,14%,17%); stroke:none;" transform="translate(0,572) scale(1,-1)">EMC / reference n; A</text>
			<path d="M 190,85 L 190,273 Z" style="stroke: rgb(88%,90%,92%); stroke-linecap: butt; stroke-width: 0.5;"/>
			<text x="182.355" y="67" style="font-family: Arial; font-size: 11px;fill: rgb(12%,14%,17%); stroke:none;" transform="translate(0,134) scale(1,-1)">0.5</text>
			<path d="M 274,85 L 274,273 Z" style="stroke: rgb(88%,90%,92%); stroke-linecap: butt; stroke-width: 0.5;"/>
			<text x="266.355" y="67" style="font-family: Arial; font-size: 11px;fill: rgb(12%,14%,17%); stroke:none;" transform="translate(0,134) scale(1,-1)">0.6</text>
			<path d="M 358,85 L 358,273 Z" style="stroke: rgb(88%,90%,92%); stroke-linecap: butt; stroke-width: 0.5;"/>
			<text x="350.355" y="67" style="font-family: Arial; font-size: 11px;fill: rgb(12%,14%,17%); stroke:none;" transform="translate(0,134) scale(1,-1)">0.7</text>
			<path d="M 442,85 L 442,273 Z" style="stroke: rgb(88%,90%,92%); stroke-linecap: butt; stroke-width: 0.5;"/>
			<text x="434.355" y="67" style="font-family: Arial; font-size: 11px;fill: rgb(12%,14%,17%); stroke:none;" transform="translate(0,134) scale(1,-1)">0.8</text>
			<path d="M 526,85 L 526,273 Z" style="stroke: rgb(88%,90%,92%); stroke-linecap: butt; stroke-width: 0.5;"/>
			<text x="518.355" y="67" style="font-family: Arial; font-size: 11px;fill: rgb(12%,14%,17%); stroke:none;" transform="translate(0,134) scale(1,-1)">0.9</text>
			<path d="M 610,85 L 610,273 Z" style="stroke: rgb(88%,90%,92%); stroke-linecap: butt; stroke-width: 0.5;"/>
			<text x="602.355" y="67" style="font-family: Arial; font-size: 11px;fill: rgb(12%,14%,17%); stroke:none;" transform="translate(0,134) scale(1,-1)">1.0</text>
			<text x="15" y="251" style="font-family: Arial; font-weight: bold; font-size: 14px;fill: rgb(12%,14%,17%); stroke:none;" transform="translate(0,502) scale(1,-1)">LGFMS</text>
			<circle cx="581.2820512820513" cy="260" r="4" style="stroke: none; stroke-linecap: butt; stroke-width: 1; fill: rgb(20%,20%,20%); fill-rule: evenodd;"/>
			<rect x="606" y="242" width="8" height="8" style="stroke: none; stroke-linecap: butt; stroke-width: 1; fill: rgb(46%,46%,46%); fill-rule: evenodd;"/>
			<text x="672" y="251" style="font-family: Arial; font-size: 12px;fill: rgb(12%,14%,17%); stroke:none;" transform="translate(0,502) scale(1,-1)">9 / 13; 0.966</text>
			<text x="830" y="251" style="font-family: Arial; font-size: 12px;fill: rgb(12%,14%,17%); stroke:none;" transform="translate(0,502) scale(1,-1)">6 / 17; 1.000</text>
			<text x="15" y="201" style="font-family: Arial; font-weight: bold; font-size: 14px;fill: rgb(12%,14%,17%); stroke:none;" transform="translate(0,402) scale(1,-1)">MFS</text>
			<circle cx="487.11111111111114" cy="210" r="4" style="stroke: none; stroke-linecap: butt; stroke-width: 1; fill: rgb(20%,20%,20%); fill-rule: evenodd;"/>
			<rect x="606" y="192" width="8" height="8" style="stroke: none; stroke-linecap: butt; stroke-width: 1; fill: rgb(46%,46%,46%); fill-rule: evenodd;"/>
			<text x="672" y="201" style="font-family: Arial; font-size: 12px;fill: rgb(12%,14%,17%); stroke:none;" transform="translate(0,402) scale(1,-1)">9 / 60; 0.854</text>
			<text x="830" y="201" style="font-family: Arial; font-size: 12px;fill: rgb(12%,14%,17%); stroke:none;" transform="translate(0,402) scale(1,-1)">6 / 6; 1.000</text>
			<text x="15" y="151" style="font-family: Arial; font-weight: bold; font-size: 14px;fill: rgb(12%,14%,17%); stroke:none;" transform="translate(0,302) scale(1,-1)">SFT</text>
			<circle cx="508.1818181818182" cy="160" r="4" style="stroke: none; stroke-linecap: butt; stroke-width: 1; fill: rgb(20%,20%,20%); fill-rule: evenodd;"/>
			<rect x="606" y="142" width="8" height="8" style="stroke: none; stroke-linecap: butt; stroke-width: 1; fill: rgb(46%,46%,46%); fill-rule: evenodd;"/>
			<text x="672" y="151" style="font-family: Arial; font-size: 12px;fill: rgb(12%,14%,17%); stroke:none;" transform="translate(0,302) scale(1,-1)">9 / 11; 0.879</text>
			<text x="830" y="151" style="font-family: Arial; font-size: 12px;fill: rgb(12%,14%,17%); stroke:none;" transform="translate(0,302) scale(1,-1)">6 / 5; 1.000</text>
			<text x="15" y="101" style="font-family: Arial; font-weight: bold; font-size: 14px;fill: rgb(12%,14%,17%); stroke:none;" transform="translate(0,202) scale(1,-1)">Desmoid</text>
			<circle cx="610.0" cy="110" r="4" style="stroke: none; stroke-linecap: butt; stroke-width: 1; fill: rgb(20%,20%,20%); fill-rule: evenodd;"/>
			<rect x="606" y="92" width="8" height="8" style="stroke: none; stroke-linecap: butt; stroke-width: 1; fill: rgb(46%,46%,46%); fill-rule: evenodd;"/>
			<text x="672" y="101" style="font-family: Arial; font-size: 12px;fill: rgb(12%,14%,17%); stroke:none;" transform="translate(0,202) scale(1,-1)">9 / 11; 1.000</text>
			<text x="830" y="101" style="font-family: Arial; font-size: 12px;fill: rgb(12%,14%,17%); stroke:none;" transform="translate(0,202) scale(1,-1)">6 / 6; 1.000</text>
			<text x="291.976" y="43" style="font-family: Arial; font-size: 12px;fill: rgb(12%,14%,17%); stroke:none;" transform="translate(0,86) scale(1,-1)">Within-source probability-of-superiority A</text>
			<circle cx="20" cy="18" r="4" style="stroke: none; stroke-linecap: butt; stroke-width: 1; fill: rgb(20%,20%,20%); fill-rule: evenodd;"/>
			<text x="33" y="14" style="font-family: Arial; font-size: 11px;fill: rgb(12%,14%,17%); stroke:none;" transform="translate(0,28) scale(1,-1)">Hofvander RNA sequencing</text>
			<rect x="315" y="14" width="8" height="8" style="stroke: none; stroke-linecap: butt; stroke-width: 1; fill: rgb(46%,46%,46%); fill-rule: evenodd;"/>
			<text x="334" y="14" style="font-family: Arial; font-size: 11px;fill: rgb(12%,14%,17%); stroke:none;" transform="translate(0,28) scale(1,-1)">GSE24369 arrays</text>
		</g>
	</g>
</svg>
