<svg xmlns="http://www.w3.org/2000/svg" width="880" height="470" viewBox="0 0 880 470" font-family="Helvetica,Arial,sans-serif">
<rect width="880" height="470" fill="#ffffff"/>
<text x="78" y="26" font-size="14" fill="#222222" font-weight="bold">Figure 3. Arms recording no objective response, by arm size</text>
<text x="462" y="452" font-size="12.5" fill="#222222" text-anchor="middle">Evaluable patients in the arm</text>
<text x="20" y="224" font-size="12.5" fill="#222222" text-anchor="middle" transform="rotate(-90 20 224)">Share of arms with zero responses</text>
<line x1="78" y1="404.0" x2="846" y2="404.0" stroke="#e8e8e8"/>
<text x="68" y="408.0" font-size="11.5" fill="#444" text-anchor="end">0%</text>
<line x1="78" y1="314.0" x2="846" y2="314.0" stroke="#e8e8e8"/>
<text x="68" y="318.0" font-size="11.5" fill="#444" text-anchor="end">25%</text>
<line x1="78" y1="224.0" x2="846" y2="224.0" stroke="#e8e8e8"/>
<text x="68" y="228.0" font-size="11.5" fill="#444" text-anchor="end">50%</text>
<line x1="78" y1="134.0" x2="846" y2="134.0" stroke="#e8e8e8"/>
<text x="68" y="138.0" font-size="11.5" fill="#444" text-anchor="end">75%</text>
<line x1="78" y1="44.0" x2="846" y2="44.0" stroke="#e8e8e8"/>
<text x="68" y="48.0" font-size="11.5" fill="#444" text-anchor="end">100%</text>
<rect x="90.3" y="126.8" width="64.5" height="277.2" fill="#c0392b" fill-opacity="0.78"/>
<text x="122.5" y="120.8" font-size="11" fill="#c0392b" text-anchor="middle">77%</text>
<text x="154.8" y="422" font-size="11.5" fill="#444" text-anchor="middle">1–4</text>
<text x="154.8" y="437" font-size="10" fill="#7f8c8d" text-anchor="middle">n=174</text>
<rect x="243.9" y="195.8" width="64.5" height="208.2" fill="#c0392b" fill-opacity="0.78"/>
<text x="276.1" y="189.8" font-size="11" fill="#c0392b" text-anchor="middle">58%</text>
<text x="308.4" y="422" font-size="11.5" fill="#444" text-anchor="middle">5–9</text>
<text x="308.4" y="437" font-size="10" fill="#7f8c8d" text-anchor="middle">n=147</text>
<rect x="397.5" y="295.6" width="64.5" height="108.4" fill="#c0392b" fill-opacity="0.78"/>
<text x="429.7" y="289.6" font-size="11" fill="#c0392b" text-anchor="middle">30%</text>
<text x="462.0" y="422" font-size="11.5" fill="#444" text-anchor="middle">10–19</text>
<text x="462.0" y="437" font-size="10" fill="#7f8c8d" text-anchor="middle">n=93</text>
<rect x="551.1" y="374.0" width="64.5" height="30.0" fill="#c0392b" fill-opacity="0.78"/>
<text x="583.3" y="368.0" font-size="11" fill="#c0392b" text-anchor="middle">8%</text>
<text x="615.6" y="422" font-size="11.5" fill="#444" text-anchor="middle">20–39</text>
<text x="615.6" y="437" font-size="10" fill="#7f8c8d" text-anchor="middle">n=48</text>
<rect x="704.7" y="404.0" width="64.5" height="0.0" fill="#c0392b" fill-opacity="0.78"/>
<text x="736.9" y="398.0" font-size="11" fill="#c0392b" text-anchor="middle">0%</text>
<text x="769.2" y="422" font-size="11.5" fill="#444" text-anchor="middle">40+</text>
<text x="769.2" y="437" font-size="10" fill="#7f8c8d" text-anchor="middle">n=90</text>
<rect x="154.8" y="109.3" width="64.5" height="294.7" fill="#2c3e50" fill-opacity="0.42"/>
<rect x="308.4" y="198.5" width="64.5" height="205.5" fill="#2c3e50" fill-opacity="0.42"/>
<rect x="462.0" y="286.7" width="64.5" height="117.3" fill="#2c3e50" fill-opacity="0.42"/>
<rect x="615.6" y="368.8" width="64.5" height="35.2" fill="#2c3e50" fill-opacity="0.42"/>
<rect x="769.2" y="401.1" width="64.5" height="2.9" fill="#2c3e50" fill-opacity="0.42"/>
<polyline points="187.1,109.3 340.7,198.5 494.3,286.7 647.9,368.8 801.5,401.1" fill="none" stroke="#2c3e50" stroke-width="1.6" stroke-dasharray="5,4"/>
<rect x="588" y="36" width="248" height="52" fill="#ffffff" fill-opacity="0.9" stroke="#e8e8e8"/>
<rect x="596" y="42" width="14" height="11" fill="#c0392b" fill-opacity="0.78"/>
<text x="616" y="52" font-size="11" fill="#222222">observed</text>
<rect x="596" y="60" width="14" height="11" fill="#2c3e50" fill-opacity="0.42"/>
<text x="616" y="70" font-size="11" fill="#222222">binomial at 7.7% response</text>
</svg>
