<svg xmlns="http://www.w3.org/2000/svg" width="720" height="276" font-family="system-ui,Arial" font-size="13"><rect width="720" height="276" fill="white"/><text x="14" y="26" font-size="15" font-weight="700">Local recurrence</text><text x="14" y="48" fill="#555">Random-effects (DerSimonian-Laird, logit); I²=90%, τ²=0.671, k=4</text><line x1="300" y1="56" x2="690" y2="56" stroke="#ccc"/><line x1="300" y1="56" x2="300" y2="246" stroke="#eee"/><text x="300" y="262" text-anchor="middle" fill="#888">0%</text><line x1="450.5850016226316" y1="56" x2="450.5850016226316" y2="246" stroke="#eee"/><text x="450.5850016226316" y="262" text-anchor="middle" fill="#888">25%</text><line x1="601.1700032452632" y1="56" x2="601.1700032452632" y2="246" stroke="#eee"/><text x="601.1700032452632" y="262" text-anchor="middle" fill="#888">50%</text><text x="14" y="82">Masunaga 2025 (2002-2022)</text><text x="250" y="82" text-anchor="end" fill="#555">16/134</text><line x1="344.84420659335757" y1="78" x2="412.0610020060269" y2="78" stroke="#444"/><rect x="367.1636146664453" y="73.24241986160634" width="9.515160276787324" height="9.515160276787324" fill="#2a6"/><text x="14" y="108">Meis-Kindblom 1999</text><text x="250" y="108" text-anchor="end" fill="#555">40/83</text><line x1="527.0006199072391" y1="104" x2="654.5454545454545" y2="104" stroke="#444"/><rect x="585.4712078154455" y="99.18686733808336" width="9.626265323833284" height="9.626265323833284" fill="#2a6"/><text x="14" y="134">US Sarcoma Collaborative 2022 (2000-2016)</text><text x="250" y="134" text-anchor="end" fill="#555">18/60</text><line x1="419.2036732920407" y1="130" x2="557.0475878267042" y2="130" stroke="#444"/><rect x="475.9640873532155" y="125.26208540605762" width="9.475829187884742" height="9.475829187884742" fill="#2a6"/><text x="14" y="160">Chiusole 2020 (1980-2018)</text><text x="250" y="160" text-anchor="end" fill="#555">14/49</text><line x1="406.6764331544991" y1="156" x2="556.848106980509" y2="156" stroke="#444"/><rect x="467.4057721058316" y="151.30862739425268" width="9.38274521149465" height="9.38274521149465" fill="#2a6"/><text x="14" y="192" font-weight="700">Pooled</text><text x="250" y="192" text-anchor="end" font-weight="700">27.8%</text><polygon points="385.59761966009904,188 467.71952051155927,181 585.1518522460536,188 467.71952051155927,195" fill="#06c"/><text x="593.1518522460536" y="192" fill="#06c">27.8% (14.2-47.3%)</text></svg>