<svg xmlns="http://www.w3.org/2000/svg" width="720" height="224" font-family="system-ui,Arial" font-size="13"><rect width="720" height="224" fill="white"/><text x="14" y="26" font-size="15" font-weight="700">Disease-specific mortality</text><text x="14" y="48" fill="#555">Random-effects (DerSimonian-Laird, logit); I²=62%, τ²=0.104, k=2</text><line x1="300" y1="56" x2="690" y2="56" stroke="#ccc"/><line x1="300" y1="56" x2="300" y2="194" stroke="#eee"/><text x="300" y="210" text-anchor="middle" fill="#888">0%</text><line x1="627.9764352747312" y1="56" x2="627.9764352747312" y2="194" stroke="#eee"/><text x="627.9764352747312" y="210" text-anchor="middle" fill="#888">25%</text><text x="14" y="82">Masunaga 2025 (2002-2022)</text><text x="250" y="82" text-anchor="end" fill="#555">18/163</text><line x1="392.7355182677273" y1="78" x2="521.009395232895" y2="78" stroke="#444"/><rect x="438.316776380891" y="71.44374975646978" width="13.11250048706043" height="13.11250048706043" fill="#2a6"/><text x="14" y="108">Meis-Kindblom 1999</text><text x="250" y="108" text-anchor="end" fill="#555">18/99</text><line x1="454.35430815989594" y1="104" x2="654.5454545454545" y2="104" stroke="#444"/><rect x="532.0845668069712" y="97.55625024353022" width="12.887499512939572" height="12.887499512939572" fill="#2a6"/><text x="14" y="140" font-weight="700">Pooled</text><text x="250" y="140" text-anchor="end" font-weight="700">14.2%</text><polygon points="412.10611364587294,136 486.1113910257497,129 596.8817564519936,136 486.1113910257497,143" fill="#06c"/><text x="604.8817564519936" y="140" fill="#06c">14.2% (8.5-22.6%)</text></svg>