<svg xmlns="http://www.w3.org/2000/svg" width="720" height="250" font-family="system-ui,Arial" font-size="13"><rect width="720" height="250" fill="white"/><text x="14" y="26" font-size="15" font-weight="700">Distant metastasis</text><text x="14" y="48" fill="#555">Random-effects (DerSimonian-Laird, logit); I²=69%, τ²=0.122, k=3</text><line x1="300" y1="56" x2="690" y2="56" stroke="#ccc"/><line x1="300" y1="56" x2="300" y2="220" stroke="#eee"/><text x="300" y="236" text-anchor="middle" fill="#888">0%</text><line x1="454.7717203770315" y1="56" x2="454.7717203770315" y2="220" stroke="#eee"/><text x="454.7717203770315" y="236" text-anchor="middle" fill="#888">25%</text><line x1="609.543440754063" y1="56" x2="609.543440754063" y2="220" stroke="#eee"/><text x="609.543440754063" y="236" text-anchor="middle" fill="#888">50%</text><text x="14" y="82">Masunaga 2025 (2002-2022)</text><text x="250" y="82" text-anchor="end" fill="#555">39/134</text><line x1="436.4759470148193" y1="78" x2="531.1800897429928" y2="78" stroke="#444"/><rect x="474.55994364951044" y="72.37794082251851" width="11.244118354962986" height="11.244118354962986" fill="#2a6"/><text x="14" y="108">Meis-Kindblom 1999</text><text x="250" y="108" text-anchor="end" fill="#555">35/76</text><line x1="518.0559742937289" y1="104" x2="654.5454545454545" y2="104" stroke="#444"/><rect x="579.7357384925209" y="98.6299377979891" width="10.740124404021806" height="10.740124404021806" fill="#2a6"/><text x="14" y="134">Chiusole 2020 (1980-2018)</text><text x="250" y="134" text-anchor="end" fill="#555">20/49</text><line x1="473.74475065287237" y1="130" x2="640.1082002487094" y2="130" stroke="#444"/><rect x="547.6806444440335" y="124.9921213794924" width="10.015757241015208" height="10.015757241015208" fill="#2a6"/><text x="14" y="166" font-weight="700">Pooled</text><text x="250" y="166" text-anchor="end" font-weight="700">37.9%</text><polygon points="470.12602721385576,162 534.6557767782049,155 606.9288419915686,162 534.6557767782049,169" fill="#06c"/><text x="614.9288419915686" y="166" fill="#06c">37.9% (27.5-49.6%)</text></svg>