<svg xmlns="http://www.w3.org/2000/svg" width="640" height="430" font-family="system-ui,Arial"><defs><marker id="a" markerWidth="8" markerHeight="8" refX="6" refY="3" orient="auto"><path d="M0,0 L6,3 L0,6 z" fill="#456"/></marker></defs><rect width="640" height="430" fill="white"/><text x="14" y="24" font-size="15" font-weight="700">PRISMA flow (snapshot) - EMC outcomes meta-analysis</text><rect x="160" y="40" width="320" height="46" fill="#f7f9fb" stroke="#456"/><text x="170" y="60" font-size="12">Records identified via Europe PMC: 1369</text><text x="170" y="76" font-size="12">(EMC OR chordoid sarcoma OR NR4A3 AND chondrosarcoma)</text><line x1="320" y1="86" x2="320" y2="110" stroke="#456" marker-end="url(#a)"/><rect x="160" y="110" width="320" height="44" fill="#f7f9fb" stroke="#456"/><text x="170" y="130" font-size="12">Title/abstract screened: 1369</text><text x="170" y="146" font-size="12">Excluded - not EMC-specific: 1236</text><line x1="320" y1="154" x2="320" y2="178" stroke="#456" marker-end="url(#a)"/><rect x="160" y="178" width="320" height="44" fill="#f7f9fb" stroke="#456"/><text x="170" y="198" font-size="12">EMC-specific records: 133</text><text x="170" y="214" font-size="12">Assessed for extractable outcomes</text><line x1="320" y1="222" x2="320" y2="246" stroke="#456" marker-end="url(#a)"/><rect x="120" y="246" width="400" height="60" fill="#f7f9fb" stroke="#456"/><text x="130" y="266" font-size="12">Included studies: 5 pooled cohorts + 9 context</text><text x="130" y="282" font-size="12">+ 4 individual case reports</text><text x="130" y="298" font-size="12">Excluded from pooling: overlap / %-only / different endpoint</text><line x1="320" y1="306" x2="320" y2="330" stroke="#456" marker-end="url(#a)"/><rect x="120" y="330" width="400" height="56" fill="#f7f9fb" stroke="#456"/><text x="130" y="350" font-size="12">Quantitative synthesis (random-effects):</text><text x="130" y="366" font-size="12">local recurrence (k=4), distant metastasis (k=3)</text><text x="130" y="382" font-size="12">disease-specific survival described per study</text></svg>