<svg xmlns="http://www.w3.org/2000/svg" width="900" height="828" viewBox="0 0 900 828" font-family="Helvetica,Arial,sans-serif">
<rect width="900" height="828" fill="#ffffff"/>
<text x="40" y="26" font-size="15" fill="#111" font-weight="600">A longer catalytic gap buys junction-unique bases and concedes gap DNA at the design's own seam, one for one</text>
<text x="40" y="51.0" font-size="11.5" fill="#b71c1c">This ordinate is the design's own seam arithmetic, not the mature-parent search Tables 2, 3, 5 and 7 print under “longest parent duplex through the gap”.</text>
<text x="40" y="66.5" font-size="11.5" fill="#b71c1c">That search FALLS as the gap lengthens (181 of 190 at 5-6-5; 130 of 266 at 5-8-5; 87 of 342 at 5-10-5) and is FLAT at the 10-base-pair criterion (87 of 190</text>
<text x="40" y="82.0" font-size="11.5" fill="#b71c1c">at 5-6-5; 88 of 266 at 5-8-5; 87 of 342 at 5-10-5). Only the quantity drawn here rises.</text>
<text x="40" y="115.5" font-size="13" fill="#111" font-weight="600">A · the catalytic gap is tiled by the two counts</text>
<text x="40" y="133.5" font-size="11.5" fill="#555">The best-margin design at EWSR1 e12 :: NR4A3 e3, at each geometry. Wings fixed at five nucleotides, so only the gap changes.</text>
<rect x="176" y="163.5" width="20" height="21" fill="#eceff1" stroke="#b0bec5" stroke-width="0.6"/>
<rect x="407" y="163.5" width="20" height="21" fill="#eceff1" stroke="#b0bec5" stroke-width="0.6"/>
<rect x="197" y="163.5" width="20" height="21" fill="#eceff1" stroke="#b0bec5" stroke-width="0.6"/>
<rect x="428" y="163.5" width="20" height="21" fill="#eceff1" stroke="#b0bec5" stroke-width="0.6"/>
<rect x="218" y="163.5" width="20" height="21" fill="#eceff1" stroke="#b0bec5" stroke-width="0.6"/>
<rect x="449" y="163.5" width="20" height="21" fill="#eceff1" stroke="#b0bec5" stroke-width="0.6"/>
<rect x="239" y="163.5" width="20" height="21" fill="#eceff1" stroke="#b0bec5" stroke-width="0.6"/>
<rect x="470" y="163.5" width="20" height="21" fill="#eceff1" stroke="#b0bec5" stroke-width="0.6"/>
<rect x="260" y="163.5" width="20" height="21" fill="#eceff1" stroke="#b0bec5" stroke-width="0.6"/>
<rect x="491" y="163.5" width="20" height="21" fill="#eceff1" stroke="#b0bec5" stroke-width="0.6"/>
<rect x="281" y="163.5" width="20" height="21" fill="#c62828" opacity="0.82" stroke="#37474f" stroke-width="0.6"/>
<rect x="302" y="163.5" width="20" height="21" fill="#c62828" opacity="0.82" stroke="#37474f" stroke-width="0.6"/>
<rect x="323" y="163.5" width="20" height="21" fill="#c62828" opacity="0.82" stroke="#37474f" stroke-width="0.6"/>
<rect x="344" y="163.5" width="20" height="21" fill="#2e7d32" opacity="0.82" stroke="#37474f" stroke-width="0.6"/>
<rect x="365" y="163.5" width="20" height="21" fill="#2e7d32" opacity="0.82" stroke="#37474f" stroke-width="0.6"/>
<rect x="386" y="163.5" width="20" height="21" fill="#2e7d32" opacity="0.82" stroke="#37474f" stroke-width="0.6"/>
<line x1="343.5" y1="156.5" x2="343.5" y2="191.5" stroke="#111" stroke-width="1.6"/>
<text x="343.5" y="152.5" font-size="11.5" fill="#111" text-anchor="middle">breakpoint</text>
<text x="164" y="178.5" font-size="12" fill="#111" text-anchor="end" font-weight="600">5-6-5</text>
<text x="526" y="178.5" font-size="11.5" fill="#333">margin 3 + own-seam parent run 3 = gap 6</text>
<rect x="176" y="215.5" width="20" height="21" fill="#eceff1" stroke="#b0bec5" stroke-width="0.6"/>
<rect x="449" y="215.5" width="20" height="21" fill="#eceff1" stroke="#b0bec5" stroke-width="0.6"/>
<rect x="197" y="215.5" width="20" height="21" fill="#eceff1" stroke="#b0bec5" stroke-width="0.6"/>
<rect x="470" y="215.5" width="20" height="21" fill="#eceff1" stroke="#b0bec5" stroke-width="0.6"/>
<rect x="218" y="215.5" width="20" height="21" fill="#eceff1" stroke="#b0bec5" stroke-width="0.6"/>
<rect x="491" y="215.5" width="20" height="21" fill="#eceff1" stroke="#b0bec5" stroke-width="0.6"/>
<rect x="239" y="215.5" width="20" height="21" fill="#eceff1" stroke="#b0bec5" stroke-width="0.6"/>
<rect x="512" y="215.5" width="20" height="21" fill="#eceff1" stroke="#b0bec5" stroke-width="0.6"/>
<rect x="260" y="215.5" width="20" height="21" fill="#eceff1" stroke="#b0bec5" stroke-width="0.6"/>
<rect x="533" y="215.5" width="20" height="21" fill="#eceff1" stroke="#b0bec5" stroke-width="0.6"/>
<rect x="281" y="215.5" width="20" height="21" fill="#c62828" opacity="0.82" stroke="#37474f" stroke-width="0.6"/>
<rect x="302" y="215.5" width="20" height="21" fill="#c62828" opacity="0.82" stroke="#37474f" stroke-width="0.6"/>
<rect x="323" y="215.5" width="20" height="21" fill="#c62828" opacity="0.82" stroke="#37474f" stroke-width="0.6"/>
<rect x="344" y="215.5" width="20" height="21" fill="#c62828" opacity="0.82" stroke="#37474f" stroke-width="0.6"/>
<rect x="365" y="215.5" width="20" height="21" fill="#2e7d32" opacity="0.82" stroke="#37474f" stroke-width="0.6"/>
<rect x="386" y="215.5" width="20" height="21" fill="#2e7d32" opacity="0.82" stroke="#37474f" stroke-width="0.6"/>
<rect x="407" y="215.5" width="20" height="21" fill="#2e7d32" opacity="0.82" stroke="#37474f" stroke-width="0.6"/>
<rect x="428" y="215.5" width="20" height="21" fill="#2e7d32" opacity="0.82" stroke="#37474f" stroke-width="0.6"/>
<line x1="364.5" y1="208.5" x2="364.5" y2="243.5" stroke="#111" stroke-width="1.6"/>
<text x="364.5" y="204.5" font-size="11.5" fill="#111" text-anchor="middle">breakpoint</text>
<text x="164" y="230.5" font-size="12" fill="#111" text-anchor="end" font-weight="600">5-8-5</text>
<text x="568" y="230.5" font-size="11.5" fill="#333">margin 4 + own-seam parent run 4 = gap 8</text>
<rect x="176" y="267.5" width="20" height="21" fill="#eceff1" stroke="#b0bec5" stroke-width="0.6"/>
<rect x="491" y="267.5" width="20" height="21" fill="#eceff1" stroke="#b0bec5" stroke-width="0.6"/>
<rect x="197" y="267.5" width="20" height="21" fill="#eceff1" stroke="#b0bec5" stroke-width="0.6"/>
<rect x="512" y="267.5" width="20" height="21" fill="#eceff1" stroke="#b0bec5" stroke-width="0.6"/>
<rect x="218" y="267.5" width="20" height="21" fill="#eceff1" stroke="#b0bec5" stroke-width="0.6"/>
<rect x="533" y="267.5" width="20" height="21" fill="#eceff1" stroke="#b0bec5" stroke-width="0.6"/>
<rect x="239" y="267.5" width="20" height="21" fill="#eceff1" stroke="#b0bec5" stroke-width="0.6"/>
<rect x="554" y="267.5" width="20" height="21" fill="#eceff1" stroke="#b0bec5" stroke-width="0.6"/>
<rect x="260" y="267.5" width="20" height="21" fill="#eceff1" stroke="#b0bec5" stroke-width="0.6"/>
<rect x="575" y="267.5" width="20" height="21" fill="#eceff1" stroke="#b0bec5" stroke-width="0.6"/>
<rect x="281" y="267.5" width="20" height="21" fill="#c62828" opacity="0.82" stroke="#37474f" stroke-width="0.6"/>
<rect x="302" y="267.5" width="20" height="21" fill="#c62828" opacity="0.82" stroke="#37474f" stroke-width="0.6"/>
<rect x="323" y="267.5" width="20" height="21" fill="#c62828" opacity="0.82" stroke="#37474f" stroke-width="0.6"/>
<rect x="344" y="267.5" width="20" height="21" fill="#c62828" opacity="0.82" stroke="#37474f" stroke-width="0.6"/>
<rect x="365" y="267.5" width="20" height="21" fill="#c62828" opacity="0.82" stroke="#37474f" stroke-width="0.6"/>
<rect x="386" y="267.5" width="20" height="21" fill="#2e7d32" opacity="0.82" stroke="#37474f" stroke-width="0.6"/>
<rect x="407" y="267.5" width="20" height="21" fill="#2e7d32" opacity="0.82" stroke="#37474f" stroke-width="0.6"/>
<rect x="428" y="267.5" width="20" height="21" fill="#2e7d32" opacity="0.82" stroke="#37474f" stroke-width="0.6"/>
<rect x="449" y="267.5" width="20" height="21" fill="#2e7d32" opacity="0.82" stroke="#37474f" stroke-width="0.6"/>
<rect x="470" y="267.5" width="20" height="21" fill="#2e7d32" opacity="0.82" stroke="#37474f" stroke-width="0.6"/>
<line x1="385.5" y1="260.5" x2="385.5" y2="295.5" stroke="#111" stroke-width="1.6"/>
<text x="385.5" y="256.5" font-size="11.5" fill="#111" text-anchor="middle">breakpoint</text>
<text x="164" y="282.5" font-size="12" fill="#111" text-anchor="end" font-weight="600">5-10-5</text>
<text x="610" y="282.5" font-size="11.5" fill="#333">margin 5 + own-seam parent run 5 = gap 10</text>
<rect x="200" y="321.5" width="13" height="13" fill="#c62828" opacity="0.82" stroke="#37474f" stroke-width="0.6"/>
<text x="219" y="332.5" font-size="11.5" fill="#555">donor-exon gap bases</text>
<rect x="450" y="321.5" width="13" height="13" fill="#2e7d32" opacity="0.82" stroke="#37474f" stroke-width="0.6"/>
<text x="469" y="332.5" font-size="11.5" fill="#555">NR4A3 gap bases</text>
<rect x="730" y="321.5" width="13" height="13" fill="#eceff1" opacity="0.82" stroke="#37474f" stroke-width="0.6"/>
<text x="749" y="332.5" font-size="11.5" fill="#555">LNA wing, not cleaved</text>
<text x="40" y="351.5" font-size="11.5" fill="#666">The same three molecules' mature-parent duplex through the whole gap — the column the tables print — reads 8 bp (TFG) at 5-6-5, none at 5-8-5, none at</text>
<text x="40" y="367.0" font-size="11.5" fill="#666">5-10-5. It is a search over six wild-type parent transcripts, not this arithmetic, and on this molecule the two disagree.</text>
<text x="40" y="404.5" font-size="13" fill="#111" font-weight="600">B · every design in all three geometries, with no scatter to fit</text>
<text x="40" y="422.5" font-size="11.5" fill="#555">798 designs over 38 junctions. Both axes are drawn at 32 px per nucleotide, so the identity lines really are at 45 degrees.</text>
<line x1="112" y1="766.5" x2="304" y2="766.5" stroke="#444"/>
<line x1="112" y1="446.5" x2="112" y2="766.5" stroke="#444"/>
<text x="112.0" y="782.5" font-size="11.5" fill="#333" text-anchor="middle">0</text>
<text x="103" y="770.5" font-size="11.5" fill="#333" text-anchor="end">0</text>
<text x="144.0" y="782.5" font-size="11.5" fill="#333" text-anchor="middle">1</text>
<text x="103" y="738.5" font-size="11.5" fill="#333" text-anchor="end">1</text>
<text x="176.0" y="782.5" font-size="11.5" fill="#333" text-anchor="middle">2</text>
<text x="103" y="706.5" font-size="11.5" fill="#333" text-anchor="end">2</text>
<text x="208.0" y="782.5" font-size="11.5" fill="#333" text-anchor="middle">3</text>
<text x="103" y="674.5" font-size="11.5" fill="#333" text-anchor="end">3</text>
<text x="240.0" y="782.5" font-size="11.5" fill="#333" text-anchor="middle">4</text>
<text x="103" y="642.5" font-size="11.5" fill="#333" text-anchor="end">4</text>
<text x="272.0" y="782.5" font-size="11.5" fill="#333" text-anchor="middle">5</text>
<text x="103" y="610.5" font-size="11.5" fill="#333" text-anchor="end">5</text>
<text x="304.0" y="782.5" font-size="11.5" fill="#333" text-anchor="middle">6</text>
<text x="103" y="578.5" font-size="11.5" fill="#333" text-anchor="end">6</text>
<text x="103" y="546.5" font-size="11.5" fill="#333" text-anchor="end">7</text>
<text x="103" y="514.5" font-size="11.5" fill="#333" text-anchor="end">8</text>
<text x="103" y="482.5" font-size="11.5" fill="#333" text-anchor="end">9</text>
<text x="103" y="450.5" font-size="11.5" fill="#333" text-anchor="end">10</text>
<text x="208" y="806.5" font-size="12" fill="#111" text-anchor="middle">gap-level margin (junction-unique bases inside the gap, nt)</text>
<text x="32" y="606" font-size="12" fill="#111" text-anchor="middle" transform="rotate(-90 32 606)">contiguous gap DNA a parent pairs at this design’s own seam (nt)</text>
<polyline points="144.0,606.5 176.0,638.5 208.0,670.5" fill="none" stroke="#1565c0" stroke-width="1.4" stroke-dasharray="5 3"/>
<circle cx="144.0" cy="606.5" r="11.5" fill="#1565c0" opacity="0.55" stroke="#1565c0"/>
<text x="144.0" y="610.7" font-size="12" fill="#ffffff" text-anchor="middle" font-weight="600">76</text>
<circle cx="176.0" cy="638.5" r="11.5" fill="#1565c0" opacity="0.55" stroke="#1565c0"/>
<text x="176.0" y="642.7" font-size="12" fill="#ffffff" text-anchor="middle" font-weight="600">76</text>
<circle cx="208.0" cy="670.5" r="8.1" fill="#1565c0" opacity="0.55" stroke="#1565c0"/>
<text x="208.0" y="674.7" font-size="12" fill="#ffffff" text-anchor="middle" font-weight="600">38</text>
<polyline points="144.0,542.5 176.0,574.5 208.0,606.5 240.0,638.5" fill="none" stroke="#ef6c00" stroke-width="1.4" stroke-dasharray="5 3"/>
<circle cx="144.0" cy="542.5" r="11.5" fill="#ef6c00" opacity="0.55" stroke="#ef6c00"/>
<text x="144.0" y="546.7" font-size="12" fill="#ffffff" text-anchor="middle" font-weight="600">76</text>
<circle cx="176.0" cy="574.5" r="11.5" fill="#ef6c00" opacity="0.55" stroke="#ef6c00"/>
<text x="176.0" y="578.7" font-size="12" fill="#ffffff" text-anchor="middle" font-weight="600">76</text>
<circle cx="208.0" cy="606.5" r="11.5" fill="#ef6c00" opacity="0.55" stroke="#ef6c00"/>
<text x="208.0" y="610.7" font-size="12" fill="#ffffff" text-anchor="middle" font-weight="600">76</text>
<circle cx="240.0" cy="638.5" r="8.1" fill="#ef6c00" opacity="0.55" stroke="#ef6c00"/>
<text x="240.0" y="642.7" font-size="12" fill="#ffffff" text-anchor="middle" font-weight="600">38</text>
<polyline points="144.0,478.5 176.0,510.5 208.0,542.5 240.0,574.5 272.0,606.5" fill="none" stroke="#6a1b9a" stroke-width="1.4" stroke-dasharray="5 3"/>
<circle cx="144.0" cy="478.5" r="11.5" fill="#6a1b9a" opacity="0.55" stroke="#6a1b9a"/>
<text x="144.0" y="482.7" font-size="12" fill="#ffffff" text-anchor="middle" font-weight="600">76</text>
<circle cx="176.0" cy="510.5" r="11.5" fill="#6a1b9a" opacity="0.55" stroke="#6a1b9a"/>
<text x="176.0" y="514.7" font-size="12" fill="#ffffff" text-anchor="middle" font-weight="600">76</text>
<circle cx="208.0" cy="542.5" r="11.5" fill="#6a1b9a" opacity="0.55" stroke="#6a1b9a"/>
<text x="208.0" y="546.7" font-size="12" fill="#ffffff" text-anchor="middle" font-weight="600">76</text>
<circle cx="240.0" cy="574.5" r="11.5" fill="#6a1b9a" opacity="0.55" stroke="#6a1b9a"/>
<text x="240.0" y="578.7" font-size="12" fill="#ffffff" text-anchor="middle" font-weight="600">76</text>
<circle cx="272.0" cy="606.5" r="8.1" fill="#6a1b9a" opacity="0.55" stroke="#6a1b9a"/>
<text x="272.0" y="610.7" font-size="12" fill="#ffffff" text-anchor="middle" font-weight="600">38</text>
<line x1="356" y1="454.5" x2="378" y2="454.5" stroke="#1565c0" stroke-width="1.6" stroke-dasharray="5 3"/>
<text x="384" y="458.5" font-size="11.5" fill="#333">5-6-5, gap 6: margin + own-seam run = 6 (190 designs)</text>
<line x1="356" y1="478.0" x2="378" y2="478.0" stroke="#ef6c00" stroke-width="1.6" stroke-dasharray="5 3"/>
<text x="384" y="482.0" font-size="11.5" fill="#333">5-8-5, gap 8: margin + own-seam run = 8 (266 designs)</text>
<line x1="356" y1="501.5" x2="378" y2="501.5" stroke="#6a1b9a" stroke-width="1.6" stroke-dasharray="5 3"/>
<text x="384" y="505.5" font-size="11.5" fill="#333">5-10-5, gap 10: margin + own-seam run = 10 (342 designs)</text>
<text x="356" y="539.0" font-size="11.5" fill="#555">Marker area is the number of designs at that point and the label is that count; the three lines are</text>
<text x="356" y="554.5" font-size="11.5" fill="#555">drawn from the identity, not fitted.</text>
<text x="356" y="580.0" font-size="11.5" fill="#555">A geometry's ceiling on margin is half its gap rounded down; clearing it means a longer gap, and</text>
<text x="356" y="595.5" font-size="11.5" fill="#555">a longer gap raises the own-seam parent-paired run at every register.</text>
<text x="356" y="621.0" font-size="11.5" fill="#555">The identity holds for every design individually, not on average. A longer gap also buys a quieter</text>
<text x="356" y="636.5" font-size="11.5" fill="#555">transcriptome: over the 6 junctions every geometry was screened at, the median near-match</text>
<text x="356" y="652.0" font-size="11.5" fill="#555">count falls 86.5 to 15 to 0 across 5-6-5, 5-8-5, 5-10-5. Part of that fall is arithmetic — at a fixed</text>
<text x="356" y="667.5" font-size="11.5" fill="#555">absolute mismatch budget a longer probe cannot hit more loci than its own sub-windows — and</text>
<text x="356" y="683.0" font-size="11.5" fill="#555">this figure is what the rest of it costs.</text>
</svg>
