<svg xmlns="http://www.w3.org/2000/svg" width="760" height="484" viewBox="0 0 760 484" font-family="-apple-system,Segoe UI,Roboto,Helvetica,Arial,sans-serif">
<rect width="760" height="484" fill="#ffffff"/>
<text x="250" y="26" font-size="16" font-weight="700" fill="#202124">EMC existing-drug repurposing candidates</text>
<text x="250" y="44" font-size="11.5" fill="#5f6368">Priority score (0–18) by evidence tier · ★ = eligible for the patient page (pending clinician review)</text>
<line x1="250" y1="56" x2="250" y2="428" stroke="#eceff1" stroke-width="1"/>
<text x="250" y="444" font-size="10" fill="#80868b" text-anchor="middle">0</text>
<line x1="396.66666666666663" y1="56" x2="396.66666666666663" y2="428" stroke="#eceff1" stroke-width="1"/>
<text x="396.66666666666663" y="444" font-size="10" fill="#80868b" text-anchor="middle">6</text>
<line x1="543.3333333333333" y1="56" x2="543.3333333333333" y2="428" stroke="#eceff1" stroke-width="1"/>
<text x="543.3333333333333" y="444" font-size="10" fill="#80868b" text-anchor="middle">12</text>
<line x1="690" y1="56" x2="690" y2="428" stroke="#eceff1" stroke-width="1"/>
<text x="690" y="444" font-size="10" fill="#80868b" text-anchor="middle">18</text>
<text x="240" y="80.5" font-size="11.5" fill="#202124" text-anchor="end">Imatinib ★</text>
<rect x="250" y="68" width="366.66666666666674" height="17" rx="2" fill="#1b7837"/>
<text x="622.6666666666667" y="80.5" font-size="10.5" fill="#5f6368">15 · T3</text>
<text x="240" y="106.5" font-size="11.5" fill="#202124" text-anchor="end">Zaltoprofen</text>
<rect x="250" y="94" width="342.2222222222222" height="17" rx="2" fill="#2c7fb8"/>
<text x="598.2222222222222" y="106.5" font-size="10.5" fill="#5f6368">14 · T1</text>
<text x="240" y="132.5" font-size="11.5" fill="#202124" text-anchor="end">Regorafenib</text>
<rect x="250" y="120" width="342.2222222222222" height="17" rx="2" fill="#2c7fb8"/>
<text x="598.2222222222222" y="132.5" font-size="10.5" fill="#5f6368">14 · T1</text>
<text x="240" y="158.5" font-size="11.5" fill="#202124" text-anchor="end">Pioglitazone</text>
<rect x="250" y="146" width="317.7777777777778" height="17" rx="2" fill="#2c7fb8"/>
<text x="573.7777777777778" y="158.5" font-size="10.5" fill="#5f6368">13 · T1</text>
<text x="240" y="184.5" font-size="11.5" fill="#202124" text-anchor="end">Palbociclib</text>
<rect x="250" y="172" width="317.7777777777778" height="17" rx="2" fill="#2c7fb8"/>
<text x="573.7777777777778" y="184.5" font-size="10.5" fill="#5f6368">13 · T1</text>
<text x="240" y="210.5" font-size="11.5" fill="#202124" text-anchor="end">Romidepsin / panobinostat</text>
<rect x="250" y="198" width="268.8888888888889" height="17" rx="2" fill="#2c7fb8"/>
<text x="524.8888888888889" y="210.5" font-size="10.5" fill="#5f6368">11 · T1</text>
<text x="240" y="236.5" font-size="11.5" fill="#202124" text-anchor="end">Larotrectinib / entrectinib</text>
<rect x="250" y="224" width="268.8888888888889" height="17" rx="2" fill="#9aa0a6"/>
<text x="524.8888888888889" y="236.5" font-size="10.5" fill="#5f6368">11 · T0</text>
<text x="240" y="262.5" font-size="11.5" fill="#202124" text-anchor="end">Venetoclax</text>
<rect x="250" y="250" width="268.8888888888889" height="17" rx="2" fill="#2c7fb8"/>
<text x="524.8888888888889" y="262.5" font-size="10.5" fill="#5f6368">11 · T1</text>
<text x="240" y="288.5" font-size="11.5" fill="#202124" text-anchor="end">Brigatinib</text>
<rect x="250" y="276" width="244.44444444444446" height="17" rx="2" fill="#2c7fb8"/>
<text x="500.44444444444446" y="288.5" font-size="10.5" fill="#5f6368">10 · T1</text>
<text x="240" y="314.5" font-size="11.5" fill="#202124" text-anchor="end">Carfilzomib</text>
<rect x="250" y="302" width="244.44444444444446" height="17" rx="2" fill="#2c7fb8"/>
<text x="500.44444444444446" y="314.5" font-size="10.5" fill="#5f6368">10 · T1</text>
<text x="240" y="340.5" font-size="11.5" fill="#202124" text-anchor="end">Anthracycline + venetoclax or…</text>
<rect x="250" y="328" width="244.44444444444446" height="17" rx="2" fill="#2c7fb8"/>
<text x="500.44444444444446" y="340.5" font-size="10.5" fill="#5f6368">10 · T1</text>
<text x="240" y="366.5" font-size="11.5" fill="#202124" text-anchor="end">NR4A3/NOR1-directed modulators</text>
<rect x="250" y="354" width="220" height="17" rx="2" fill="#2c7fb8"/>
<text x="476" y="366.5" font-size="10.5" fill="#5f6368">9 · T1</text>
<text x="240" y="392.5" font-size="11.5" fill="#202124" text-anchor="end">BET</text>
<rect x="250" y="380" width="220" height="17" rx="2" fill="#2c7fb8"/>
<text x="476" y="392.5" font-size="10.5" fill="#5f6368">9 · T1</text>
<text x="240" y="418.5" font-size="11.5" fill="#202124" text-anchor="end">mRNA-LNP vaccine + PD-1</text>
<rect x="250" y="406" width="195.55555555555554" height="17" rx="2" fill="#9aa0a6"/>
<text x="451.55555555555554" y="418.5" font-size="10.5" fill="#5f6368">8 · T0</text>
<text x="240" y="465" font-size="10.5" fill="#5f6368" text-anchor="end">Tier</text>
<rect x="250" y="454" width="11" height="11" rx="2" fill="#1b7837"/>
<text x="265" y="463.5" font-size="10.5" fill="#5f6368">T3</text>
<rect x="310" y="454" width="11" height="11" rx="2" fill="#5aae61"/>
<text x="325" y="463.5" font-size="10.5" fill="#5f6368">T2</text>
<rect x="370" y="454" width="11" height="11" rx="2" fill="#2c7fb8"/>
<text x="385" y="463.5" font-size="10.5" fill="#5f6368">T1</text>
<rect x="430" y="454" width="11" height="11" rx="2" fill="#9aa0a6"/>
<text x="445" y="463.5" font-size="10.5" fill="#5f6368">T0</text>
</svg>
