<svg xmlns="http://www.w3.org/2000/svg" width="980" height="562" font-family="Helvetica,Arial,sans-serif" viewBox="0 0 980 562">
<rect width="980" height="562" fill="white"/>
<text x="22" y="40" font-size="22" font-weight="700">Prioritized treatment-route portfolio for EWSR1::NR4A3 EMC</text>
<text x="22" y="64" font-size="13" fill="#555">Ranked by likelihood of patient benefit x near-term feasibility; computation-only triage (no wet lab).</text>
<text x="22" y="118" font-size="15" font-weight="700">Tier 1</text>
<text x="22" y="136" font-size="10.5" fill="#666"><tspan x="22" dy="0">Actionable now — approved </tspan><tspan x="22" dy="13">drugs, EMC evidence</tspan></text>
<rect x="188" y="96" width="236" height="66" rx="7" fill="#e6f4ea" stroke="#2e7d32" stroke-width="1"/>
<rect x="188" y="96" width="5" height="66" rx="2" fill="#2e7d32"/>
<text x="202" y="122" font-size="12.5" font-weight="700" fill="#1a1a1a">TKI + checkpoint inhibitor</text>
<text x="202" y="142" font-size="10.5" fill="#444">ImmunoSarc: an EMC partial response</text>
<rect x="438" y="96" width="236" height="66" rx="7" fill="#e6f4ea" stroke="#2e7d32" stroke-width="1"/>
<rect x="438" y="96" width="5" height="66" rx="2" fill="#2e7d32"/>
<text x="452" y="122" font-size="12.5" font-weight="700" fill="#1a1a1a">Trabectedin</text>
<text x="452" y="142" font-size="10.5" fill="#444">EMC responder + fusion-TF mechanism</text>
<rect x="688" y="96" width="236" height="66" rx="7" fill="#e6f4ea" stroke="#2e7d32" stroke-width="1"/>
<rect x="688" y="96" width="5" height="66" rx="2" fill="#2e7d32"/>
<text x="702" y="122" font-size="12.5" font-weight="700" fill="#1a1a1a">Carfilzomib + anthracycline</text>
<text x="702" y="142" font-size="10.5" fill="#444">active across 2 patient-derived EMC models</text>
<text x="22" y="212" font-size="15" font-weight="700">Tier 2</text>
<text x="22" y="230" font-size="10.5" fill="#666"><tspan x="22" dy="0">Driver-directed, high ceil</tspan><tspan x="22" dy="13">ing</tspan></text>
<rect x="188" y="190" width="236" height="66" rx="7" fill="#e8f0fe" stroke="#1565c0" stroke-width="1"/>
<rect x="188" y="190" width="5" height="66" rx="2" fill="#1565c0"/>
<text x="202" y="216" font-size="12.5" font-weight="700" fill="#1a1a1a">NR4A3 degrader (PROTAC)</text>
<text x="202" y="236" font-size="10.5" fill="#444">addiction supported: FLI1/Ewing -0.93, 74%</text>
<text x="22" y="306" font-size="15" font-weight="700">Tier 3</text>
<text x="22" y="324" font-size="10.5" fill="#666"><tspan x="22" dy="0">Surface / antigen — surrog</tspan><tspan x="22" dy="13">ate-supported</tspan></text>
<rect x="188" y="284" width="236" height="66" rx="7" fill="#e8f0fe" stroke="#1565c0" stroke-width="1"/>
<rect x="188" y="284" width="5" height="66" rx="2" fill="#1565c0"/>
<text x="202" y="310" font-size="12.5" font-weight="700" fill="#1a1a1a">B7-H3 (CD276) ADC / CAR-T</text>
<text x="202" y="330" font-size="10.5" fill="#444">99% of sarcoma lines express it</text>
<rect x="438" y="284" width="236" height="66" rx="7" fill="#e8f0fe" stroke="#1565c0" stroke-width="1"/>
<rect x="438" y="284" width="5" height="66" rx="2" fill="#1565c0"/>
<text x="452" y="310" font-size="12.5" font-weight="700" fill="#1a1a1a">PRAME (ImmTAC / CAR)</text>
<text x="452" y="330" font-size="10.5" fill="#444">53%; high in myxoid 7.6 / synovial 7.2</text>
<rect x="688" y="284" width="236" height="66" rx="7" fill="#fff4e5" stroke="#e8830c" stroke-width="1"/>
<rect x="688" y="284" width="5" height="66" rx="2" fill="#e8830c"/>
<text x="702" y="310" font-size="12.5" font-weight="700" fill="#1a1a1a">FAP radioligand therapy</text>
<text x="702" y="330" font-size="10.5" fill="#444">EMC myxoid stroma; pan-sarcoma signal</text>
<text x="22" y="400" font-size="15" font-weight="700">Tier 4</text>
<text x="22" y="418" font-size="10.5" fill="#666"><tspan x="22" dy="0">Down-weighted with data / </tspan><tspan x="22" dy="13">logic</tspan></text>
<rect x="188" y="378" width="236" height="66" rx="7" fill="#f1f1f1" stroke="#9e9e9e" stroke-width="1"/>
<rect x="188" y="378" width="5" height="66" rx="2" fill="#9e9e9e"/>
<text x="202" y="404" font-size="12.5" font-weight="700" fill="#1a1a1a">TCR-T / ImmTAC (NY-ESO/MAGE-A4)</text>
<text x="202" y="424" font-size="10.5" fill="#444">EMC is CTA-low (5-7%)</text>
<rect x="438" y="378" width="236" height="66" rx="7" fill="#f1f1f1" stroke="#9e9e9e" stroke-width="1"/>
<rect x="438" y="378" width="5" height="66" rx="2" fill="#9e9e9e"/>
<text x="452" y="404" font-size="12.5" font-weight="700" fill="#1a1a1a">Synthetic-lethal / BRD9</text>
<text x="452" y="424" font-size="10.5" fill="#444">DepMap: not sarcoma-selective</text>
<rect x="688" y="378" width="236" height="66" rx="7" fill="#f1f1f1" stroke="#9e9e9e" stroke-width="1"/>
<rect x="688" y="378" width="5" height="66" rx="2" fill="#9e9e9e"/>
<text x="702" y="404" font-size="12.5" font-weight="700" fill="#1a1a1a">Fusion-junction vaccine</text>
<text x="702" y="424" font-size="10.5" fill="#444">self-adjacent junction, cold tumour</text>
<rect x="22" y="512" width="16" height="16" rx="3" fill="#e6f4ea" stroke="#2e7d32"/>
<text x="44" y="525" font-size="11" fill="#333">EMC clinical/ex-vivo evidence</text>
<rect x="237.60000000000002" y="512" width="16" height="16" rx="3" fill="#e8f0fe" stroke="#1565c0"/>
<text x="259.6" y="525" font-size="11" fill="#333">in-silico / surrogate evidence</text>
<rect x="459.6" y="512" width="16" height="16" rx="3" fill="#fff4e5" stroke="#e8830c"/>
<text x="481.6" y="525" font-size="11" fill="#333">mechanistic hypothesis</text>
<rect x="630.4000000000001" y="512" width="16" height="16" rx="3" fill="#f1f1f1" stroke="#9e9e9e"/>
<text x="652.4000000000001" y="525" font-size="11" fill="#333">down-weighted with data</text>
<text x="22" y="544" font-size="9.5" fill="#999">Source: research/manuscripts/emc-treatment-strategy.md + depmap-insilico-findings.md. Nothing here is wet-lab validated.</text>
</svg>
