<svg xmlns="http://www.w3.org/2000/svg" width="720" height="400" viewBox="0 0 720 400" font-family="Helvetica,Arial,sans-serif">
<rect width="720" height="400" fill="#ffffff"/>
<line x1="74" y1="344.0" x2="696" y2="344.0" stroke="#e6e6e6" stroke-width="1"/>
<text x="66" y="348.0" font-size="12" fill="#333" text-anchor="end">0%</text>
<line x1="74" y1="263.0" x2="696" y2="263.0" stroke="#e6e6e6" stroke-width="1"/>
<text x="66" y="267.0" font-size="12" fill="#333" text-anchor="end">25%</text>
<line x1="74" y1="182.0" x2="696" y2="182.0" stroke="#e6e6e6" stroke-width="1"/>
<text x="66" y="186.0" font-size="12" fill="#333" text-anchor="end">50%</text>
<line x1="74" y1="101.0" x2="696" y2="101.0" stroke="#e6e6e6" stroke-width="1"/>
<text x="66" y="105.0" font-size="12" fill="#333" text-anchor="end">75%</text>
<line x1="74" y1="20.0" x2="696" y2="20.0" stroke="#e6e6e6" stroke-width="1"/>
<text x="66" y="24.0" font-size="12" fill="#333" text-anchor="end">100%</text>
<line x1="74.0" y1="344" x2="74.0" y2="349" stroke="#666"/>
<text x="74.0" y="364" font-size="12" fill="#333" text-anchor="middle">0.1</text>
<line x1="184.2" y1="344" x2="184.2" y2="349" stroke="#666"/>
<text x="184.2" y="364" font-size="12" fill="#333" text-anchor="middle">0.2</text>
<line x1="329.9" y1="344" x2="329.9" y2="349" stroke="#666"/>
<text x="329.9" y="364" font-size="12" fill="#333" text-anchor="middle">0.5</text>
<line x1="440.1" y1="344" x2="440.1" y2="349" stroke="#666"/>
<text x="440.1" y="364" font-size="12" fill="#333" text-anchor="middle">1</text>
<line x1="550.3" y1="344" x2="550.3" y2="349" stroke="#666"/>
<text x="550.3" y="364" font-size="12" fill="#333" text-anchor="middle">2</text>
<line x1="696.0" y1="344" x2="696.0" y2="349" stroke="#666"/>
<text x="696.0" y="364" font-size="12" fill="#333" text-anchor="middle">5</text>
<line x1="329.9" y1="20" x2="329.9" y2="344" stroke="#c0392b" stroke-width="1.2" stroke-dasharray="5,4"/>
<text x="335.9" y="34" font-size="12" fill="#c0392b">conventional cut, 0.5</text>
<path d="M 74.0 344.0 L 89.2 344.0 L 89.2 344.0 L 103.0 344.0 L 103.0 344.0 L 115.7 344.0 L 115.7 344.0 L 127.5 344.0 L 127.5 344.0 L 138.5 344.0 L 138.5 344.0 L 148.7 344.0 L 148.7 344.0 L 158.4 344.0 L 158.4 344.0 L 167.5 344.0 L 167.5 344.0 L 176.1 344.0 L 176.1 344.0 L 184.2 344.0 L 184.2 344.0 L 192.0 344.0 L 192.0 344.0 L 199.4 344.0 L 199.4 344.0 L 206.4 344.0 L 206.4 344.0 L 213.2 344.0 L 213.2 344.0 L 219.7 344.0 L 219.7 344.0 L 225.9 344.0 L 225.9 344.0 L 231.9 344.0 L 231.9 344.0 L 237.7 344.0 L 237.7 344.0 L 243.3 344.0 L 243.3 344.0 L 248.7 344.0 L 248.7 344.0 L 253.9 344.0 L 253.9 344.0 L 258.9 344.0 L 258.9 344.0 L 263.8 344.0 L 263.8 344.0 L 268.6 344.0 L 268.6 344.0 L 273.2 344.0 L 273.2 344.0 L 277.7 344.0 L 277.7 344.0 L 282.0 344.0 L 282.0 344.0 L 283.5 344.0 L 283.5 344.0 L 283.6 344.0 L 283.6 316.4 L 286.3 316.4 L 286.3 316.4 L 290.4 316.4 L 290.4 316.4 L 294.4 316.4 L 294.4 316.4 L 295.7 316.4 L 295.7 316.4 L 295.7 316.4 L 295.7 304.1 L 296.8 304.1 L 296.8 304.1 L 296.8 304.1 L 296.8 268.8 L 298.3 268.8 L 298.3 268.8 L 302.2 268.8 L 302.2 268.8 L 305.9 268.8 L 305.9 268.8 L 309.6 268.8 L 309.6 268.8 L 313.1 268.8 L 313.1 268.8 L 315.9 268.8 L 315.9 268.8 L 315.9 268.8 L 315.9 245.5 L 316.6 245.5 L 316.6 245.5 L 320.1 245.5 L 320.1 245.5 L 323.4 245.5 L 323.4 245.5 L 326.7 245.5 L 326.7 245.5 L 329.4 245.5 L 329.4 245.5 L 329.5 245.5 L 329.5 245.5 L 329.9 245.5 L 329.9 245.5 L 332.8 245.5 L 332.8 245.5 L 332.9 245.5 L 332.9 236.5 L 345.0 236.5 L 345.0 236.5 L 347.9 236.5 L 347.9 236.5 L 347.9 236.5 L 347.9 236.5 L 350.9 236.5 L 350.9 236.5 L 350.9 236.5 L 350.9 223.2 L 358.9 223.2 L 358.9 223.2 L 371.6 223.2 L 371.6 223.2 L 378.8 223.2 L 378.8 223.2 L 378.8 223.2 L 378.8 223.2 L 379.6 223.2 L 379.6 223.2 L 379.6 223.2 L 379.6 223.2 L 383.4 223.2 L 383.4 223.2 L 394.4 223.2 L 394.4 223.2 L 404.6 223.2 L 404.6 223.2 L 411.2 223.2 L 411.2 223.2 L 411.2 223.2 L 411.2 223.2 L 414.3 223.2 L 414.3 223.2 L 423.4 223.2 L 423.4 223.2 L 428.8 223.2 L 428.8 223.2 L 428.8 223.2 L 428.8 200.4 L 429.9 200.4 L 429.9 200.4 L 429.9 200.4 L 429.9 200.4 L 431.9 200.4 L 431.9 200.4 L 435.0 200.4 L 435.0 200.4 L 435.0 200.4 L 435.0 189.3 L 440.1 189.3 L 440.1 189.3 L 447.0 189.3 L 447.0 189.3 L 447.0 189.3 L 447.0 176.6 L 447.9 176.6 L 447.9 176.6 L 452.0 176.6 L 452.0 176.6 L 452.1 176.6 L 452.1 176.6 L 454.9 176.6 L 454.9 176.6 L 454.9 176.6 L 454.9 176.6 L 455.3 176.6 L 455.3 176.6 L 461.2 176.6 L 461.2 176.6 L 461.2 176.6 L 461.2 159.8 L 462.3 159.8 L 462.3 159.8 L 469.1 159.8 L 469.1 159.8 L 473.9 159.8 L 473.9 159.8 L 473.9 159.8 L 473.9 159.8 L 475.5 159.8 L 475.5 159.8 L 475.5 159.8 L 475.5 159.8 L 475.6 159.8 L 475.6 159.8 L 481.8 159.8 L 481.8 159.8 L 486.4 159.8 L 486.4 159.8 L 486.4 159.8 L 486.4 159.8 L 487.8 159.8 L 487.8 159.8 L 491.3 159.8 L 491.3 159.8 L 491.3 159.8 L 491.3 159.8 L 493.6 159.8 L 493.6 159.8 L 498.5 159.8 L 498.5 159.8 L 498.5 159.8 L 498.5 159.8 L 499.2 159.8 L 499.2 159.8 L 500.9 159.8 L 500.9 159.8 L 500.9 159.8 L 500.9 146.1 L 504.6 146.1 L 504.6 146.1 L 509.1 146.1 L 509.1 146.1 L 509.1 146.1 L 509.1 146.1 L 509.8 146.1 L 509.8 146.1 L 514.8 146.1 L 514.8 146.1 L 516.1 146.1 L 516.1 146.1 L 516.1 146.1 L 516.1 146.1 L 516.6 146.1 L 516.6 146.1 L 516.6 146.1 L 516.6 136.2 L 517.5 136.2 L 517.5 136.2 L 517.5 136.2 L 517.5 130.6 L 518.9 130.6 L 518.9 130.6 L 518.9 130.6 L 518.9 124.8 L 519.7 124.8 L 519.7 124.8 L 524.5 124.8 L 524.5 124.8 L 529.1 124.8 L 529.1 124.8 L 531.6 124.8 L 531.6 124.8 L 531.6 124.8 L 531.6 119.8 L 533.6 119.8 L 533.6 119.8 L 535.3 119.8 L 535.3 119.8 L 535.3 119.8 L 535.3 108.9 L 537.9 108.9 L 537.9 108.9 L 542.2 108.9 L 542.2 108.9 L 546.3 108.9 L 546.3 108.9 L 548.9 108.9 L 548.9 108.9 L 548.9 108.9 L 548.9 108.9 L 550.3 108.9 L 550.3 108.9 L 551.3 108.9 L 551.3 108.9 L 551.3 108.9 L 551.3 108.9 L 551.9 108.9 L 551.9 108.9 L 551.9 108.9 L 551.9 108.9 L 553.0 108.9 L 553.0 108.9 L 553.1 108.9 L 553.1 102.5 L 554.3 102.5 L 554.3 102.5 L 554.3 102.5 L 554.3 97.4 L 563.5 97.4 L 563.5 97.4 L 563.5 97.4 L 563.5 97.4 L 569.0 97.4 L 569.0 97.4 L 571.3 97.4 L 571.3 97.4 L 571.3 97.4 L 571.3 94.4 L 577.1 94.4 L 577.1 94.4 L 577.1 94.4 L 577.1 94.4 L 579.4 94.4 L 579.4 94.4 L 579.5 94.4 L 579.5 94.4 L 582.6 94.4 L 582.6 94.4 L 582.6 94.4 L 582.6 94.4 L 583.4 94.4 L 583.4 94.4 L 583.4 94.4 L 583.4 89.2 L 584.3 89.2 L 584.3 89.2 L 584.3 89.2 L 584.3 89.2 L 585.8 89.2 L 585.8 89.2 L 590.3 89.2 L 590.3 89.2 L 590.4 89.2 L 590.4 89.2 L 597.6 89.2 L 597.6 89.2 L 597.6 89.2 L 597.6 89.2 L 600.4 89.2 L 600.4 89.2 L 600.5 89.2 L 600.5 69.8 L 600.9 69.8 L 600.9 69.8 L 602.6 69.8 L 602.6 69.8 L 602.6 69.8 L 602.6 69.8 L 605.7 69.8 L 605.7 69.8 L 605.7 69.8 L 605.7 69.8 L 606.7 69.8 L 606.7 69.8 L 606.7 69.8 L 606.7 69.8 L 607.8 69.8 L 607.8 69.8 L 607.8 69.8 L 607.8 69.8 L 612.2 69.8 L 612.2 69.8 L 612.2 69.8 L 612.2 69.8 L 614.3 69.8 L 614.3 69.8 L 614.3 69.8 L 614.3 69.8 L 614.8 69.8 L 614.8 69.8 L 616.7 69.8 L 616.7 69.8 L 616.7 69.8 L 616.7 67.8 L 627.5 67.8 L 627.5 67.8 L 628.3 67.8 L 628.3 67.8 L 628.3 67.8 L 628.3 67.8 L 632.7 67.8 L 632.7 67.8 L 632.7 67.8 L 632.7 67.8 L 634.2 67.8 L 634.2 67.8 L 634.2 67.8 L 634.2 67.8 L 638.7 67.8 L 638.7 67.8 L 638.7 67.8 L 638.7 64.8 L 639.3 64.8 L 639.3 64.8 L 640.5 64.8 L 640.5 64.8 L 640.5 64.8 L 640.5 64.8 L 642.1 64.8 L 642.1 64.8 L 642.1 64.8 L 642.1 64.8 L 643.7 64.8 L 643.7 64.8 L 643.7 64.8 L 643.7 64.8 L 645.5 64.8 L 645.5 64.8 L 645.5 64.8 L 645.5 64.8 L 647.2 64.8 L 647.2 64.8 L 647.2 64.8 L 647.2 64.8 L 649.0 64.8 L 649.0 64.8 L 649.0 64.8 L 649.0 64.8 L 650.3 64.8 L 650.3 64.8 L 650.9 64.8 L 650.9 64.8 L 650.9 64.8 L 650.9 64.8 L 652.7 64.8 L 652.7 64.8 L 652.7 64.8 L 652.7 64.8 L 658.4 64.8 L 658.4 64.8 L 658.4 64.8 L 658.4 64.8 L 660.4 64.8 L 660.4 64.8 L 660.4 64.8 L 660.4 64.8 L 660.5 64.8 L 660.5 64.8 L 662.4 64.8 L 662.4 64.8 L 662.4 64.8 L 662.4 63.5 L 666.6 63.5 L 666.6 63.5 L 666.6 63.5 L 666.6 63.5 L 668.8 63.5 L 668.8 63.5 L 668.8 63.5 L 668.8 63.5 L 670.2 63.5 L 670.2 63.5 L 670.9 63.5 L 670.9 63.5 L 671.0 63.5 L 671.0 63.5 L 673.1 63.5 L 673.1 63.5 L 673.1 63.5 L 673.1 58.9 L 675.4 58.9 L 675.4 58.9 L 675.4 58.9 L 675.4 58.9 L 677.6 58.9 L 677.6 58.9 L 677.6 58.9 L 677.6 57.2 L 679.2 57.2 L 679.2 57.2 L 679.9 57.2 L 679.9 57.2 L 679.9 57.2 L 679.9 57.2 L 682.2 57.2 L 682.2 57.2 L 682.2 57.2 L 682.2 57.2 L 684.7 57.2 L 684.7 57.2 L 684.7 57.2 L 684.7 54.0 L 687.2 54.0 L 687.2 54.0 L 687.2 54.0 L 687.2 54.0 L 687.8 54.0 L 687.8 54.0 L 689.7 54.0 L 689.7 54.0 L 689.7 54.0 L 689.7 54.0 L 692.4 54.0 L 692.4 54.0 L 692.4 54.0 L 692.4 54.0 L 695.0 54.0 L 695.0 54.0 L 695.0 54.0 L 695.0 51.8 L 696.0 51.8 L 696.0 51.8" fill="none" stroke="#1f4e79" stroke-width="2"/>
<circle cx="283.6" cy="316.4" r="3.2" fill="#1f4e79"/>
<circle cx="295.7" cy="304.1" r="3.2" fill="#1f4e79"/>
<circle cx="296.8" cy="268.8" r="3.2" fill="#1f4e79"/>
<circle cx="315.9" cy="245.5" r="3.2" fill="#1f4e79"/>
<line x1="74" y1="344" x2="696" y2="344" stroke="#666"/>
<line x1="74" y1="20" x2="74" y2="344" stroke="#666"/>
<text x="385" y="386" font-size="13" fill="#000" text-anchor="middle">MHCflurry presentation percentile (log scale)</text>
<text x="16" y="182" font-size="13" fill="#000" text-anchor="middle" transform="rotate(-90 16 182)">predicted class I coverage</text>
</svg>